<?xml version="1.0" encoding="utf-8"?>
<!-- Generator: Adobe Illustrator 23.0.1, SVG Export Plug-In . SVG Version: 6.00 Build 0)  -->
<svg version="1.1" id="Camada_1" xmlns="http://www.w3.org/2000/svg" xmlns:xlink="http://www.w3.org/1999/xlink" x="0px" y="0px"
	 viewBox="0 0 425.550476 164.087326" style="enable-background:new 0 0 425.550476 164.087326;" xml:space="preserve">
<style type="text/css">
	.st0{fill:#8890A3;}
	.st1{fill:#4B4B4B;}
	.st2{fill:url(#SVGID_1_);}
	.st3{fill:url(#SVGID_2_);}
	.st4{fill:url(#SVGID_3_);}
	.st5{fill:#2585E5;}
	.st6{fill:url(#SVGID_4_);}
	.st7{fill:url(#SVGID_5_);}
</style>
<g>
	<g>
		<g>
			<g>
				<g>
					<g>
						<path class="st0" d="M177.106628,135.557175c1.1754,1.308105,3.096481,2.535629,5.605255,2.535629
							c3.173874,0,4.188126-1.707794,4.188126-3.068817c0-2.135147-2.161209-2.722046-4.508835-3.362671
							c-2.854767-0.747253-6.030228-1.54744-6.030228-5.042824c0-2.935326,2.614624-4.936974,6.109222-4.936974
							c2.722046,0,4.831116,0.907616,6.325638,2.481918l-1.334961,1.62722c-1.333374-1.467659-3.202316-2.134346-5.150253-2.134346
							c-2.134354,0-3.655731,1.146957-3.655731,2.828682c0,1.78759,2.055374,2.321571,4.322433,2.935326
							c2.908463,0.773331,6.218216,1.680954,6.218216,5.416458c0,2.588562-1.76152,5.230042-6.564209,5.230042
							c-3.094894,0-5.363525-1.173828-6.831192-2.827911L177.106628,135.557175z"/>
					</g>
				</g>
				<g>
					<g>
						<path class="st0" d="M210.444244,121.654663c5.257675,0,8.83284,3.949577,8.83284,9.206467
							c0,5.256897-3.575165,9.205688-8.83284,9.205688c-5.282959,0-8.83284-3.948792-8.83284-9.205688
							C201.611404,125.60424,205.161285,121.654663,210.444244,121.654663z M210.444244,123.629448
							c-4.001709,0-6.537338,3.068825-6.537338,7.231682c0,4.136002,2.535629,7.231674,6.537338,7.231674
							c3.97644,0,6.537338-3.095673,6.537338-7.231674C216.981583,126.698273,214.420685,123.629448,210.444244,123.629448z"/>
					</g>
				</g>
				<g>
					<g>
						<path class="st0" d="M232.574524,121.948509h2.214935v15.823601h8.271988v1.974792h-10.486923V121.948509z"/>
					</g>
				</g>
				<g>
					<g>
						<path class="st0" d="M255.289352,121.948509h2.21492v10.833702c0,3.255234,1.761505,5.310593,5.044403,5.310593
							c3.281311,0,5.042816-2.055359,5.042816-5.310593v-10.833702h2.214935v10.860558
							c0,4.42984-2.428192,7.257751-7.257751,7.257751c-4.829529,0-7.259323-2.854767-7.259323-7.230896V121.948509z"/>
					</g>
				</g>
				<g>
					<g>
						<path class="st0" d="M288.200409,123.923302h-5.628937v-1.974792h13.501251v1.974792h-5.657379v15.823601h-2.214935
							V123.923302z"/>
					</g>
				</g>
				<g>
					<g>
						<path class="st0" d="M308.836182,121.948509h2.214905v17.798393h-2.214905V121.948509z"/>
					</g>
				</g>
				<g>
					<g>
						<path class="st0" d="M333.14978,121.654663c5.25769,0,8.832855,3.949577,8.832855,9.206467
							c0,5.256897-3.575165,9.205688-8.832855,9.205688c-5.282959,0-8.832825-3.948792-8.832825-9.205688
							C324.316956,125.60424,327.866821,121.654663,333.14978,121.654663z M333.14978,123.629448
							c-4.001709,0-6.537354,3.068825-6.537354,7.231682c0,4.136002,2.535645,7.231674,6.537354,7.231674
							c3.97644,0,6.537354-3.095673,6.537354-7.231674C339.687134,126.698273,337.126221,123.629448,333.14978,123.629448z"/>
					</g>
				</g>
				<g>
					<g>
						<path class="st0" d="M357.496582,125.390961v14.355942h-2.214935v-17.798393h2.268646l10.246796,14.062874v-14.062874
							h2.214905v17.798393h-2.134338L357.496582,125.390961z"/>
					</g>
				</g>
				<g>
					<g>
						<path class="st0" d="M384.243134,135.557175c1.175385,1.308105,3.096466,2.535629,5.605225,2.535629
							c3.175476,0,4.188141-1.707794,4.188141-3.068817c0-2.135147-2.161194-2.722046-4.50882-3.362671
							c-2.854767-0.747253-6.030243-1.54744-6.030243-5.042824c0-2.935326,2.614624-4.936974,6.110809-4.936974
							c2.720459,0,4.829529,0.907616,6.324066,2.481918l-1.334961,1.62722c-1.333374-1.467659-3.202332-2.134346-5.150269-2.134346
							c-2.134338,0-3.655731,1.146957-3.655731,2.828682c0,1.78759,2.055359,2.321571,4.322418,2.935326
							c2.910065,0.773331,6.218231,1.680954,6.218231,5.416458c0,2.588562-1.761505,5.230042-6.564209,5.230042
							c-3.094879,0-5.363525-1.173828-6.831177-2.827911L384.243134,135.557175z"/>
					</g>
				</g>
			</g>
			<g>
				<g>
					<path class="st1" d="M307.265228,80.484802c0-6.806931-5.765808-11.0457-11.017273-11.0457l-12.195282-0.00293
						c-14.380737,0.00293-22.366669-12.312641-22.36557-22.565334c0.001312-12.130825,10.169434-22.548235,22.60791-22.548235
						h32.845367c0.893433,0,1.617737,0.724291,1.617737,1.617748v8.267038c0,0.893456-0.724304,1.617748-1.617737,1.617748
						h-33.285278c-5.98175,0-10.632629,5.103645-10.632629,11.055721c0,4.681664,3.606201,11.051548,11.07254,11.035679
						l11.952942,0.028778c9.396851-0.063465,22.5047,7.019634,22.510162,22.539486
						c0.003876,11.04863-8.155701,22.633247-22.511475,22.631828l-32.941162-0.001358
						c-0.894135-0.000038-1.618683-0.725418-1.617676-1.61956l0.009308-8.314369
						c0.000977-0.892746,0.724976-1.615936,1.617737-1.615936h32.96051
						C302.279236,91.565407,307.265228,86.728386,307.265228,80.484802z"/>
				</g>
			</g>
			<g>
				<g>
					<g>
						<path class="st1" d="M231.594666,101.498878v-9.971535c-7.815521,7.84333-18.913712,12.412872-31.062683,11.465889
							c-19.34523-1.507919-34.928604-17.34066-36.156265-36.705704c-1.45311-22.921318,16.707245-41.964272,39.315521-41.964272
							c5.324234,0,11.818405,0.01041,14.780045,0.015711c0.892334,0.001598,1.611008,0.725399,1.611008,1.617741v8.260792
							c0,0.893456-0.724289,1.617748-1.617752,1.617744L204.3508,35.835236
							c-14.007645-0.000008-27.161911,11.345814-28.426666,25.296249c-1.499084,16.535164,11.536438,30.473152,27.767105,30.473152
							c15.375351,0,27.883911-12.508957,27.883911-27.884697c0-0.002731,0.019516-0.005856,0.019516-0.008587V25.941002
							c0-0.893457,0.724289-1.617746,1.617752-1.617746h8.258148c0.893463,0,1.617752,0.724289,1.617752,1.617746v75.557877
							c0,0.893463-0.724289,1.617752-1.617752,1.617752h-8.258148
							C232.318954,103.116631,231.594666,102.392342,231.594666,101.498878z"/>
					</g>
				</g>
			</g>
			<g>
				<g>
					<g>
						<path class="st1" d="M369.661407,91.620872c-16.455505,0-29.632263-14.301437-27.745178-31.123398
							c1.404877-12.523327,11.363342-22.741814,23.850098-24.441353c13.380402-1.821175,25.240479,5.912727,29.805817,17.323929
							c0.247925,0.619705,0.830841,1.036957,1.498322,1.036957h8.770996c1.098541,0,1.861023-1.066856,1.543243-2.118439
							c-5.328033-17.632622-22.675964-30.049959-42.524353-27.705742c-18.668396,2.204849-33.347168,17.799454-34.529999,36.560352
							c-1.444702,22.914478,16.71936,41.949497,39.331055,41.949497c17.798706,0,32.832764-11.797623,37.724762-27.994621
							c0.316925-1.049385-0.449951-2.11364-1.546143-2.11364H397.069c-0.666748,0-1.248718,0.416687-1.496368,1.035736
							C391.456238,84.320541,381.407684,91.620872,369.661407,91.620872z"/>
					</g>
				</g>
			</g>
		</g>
	</g>
	<g>
		<linearGradient id="SVGID_1_" gradientUnits="userSpaceOnUse" x1="18.092234" y1="82.19503" x2="145.693329" y2="82.19503">
			<stop  offset="0" style="stop-color:#0FA7EA"/>
			<stop  offset="1" style="stop-color:#1FD7E5"/>
		</linearGradient>
		<path class="st2" d="M122.657898,69.94902c-0.711586-1.310417-1.842621-2.110779-3.372398-2.110779l-37.29567,0.07299
			c-6.729218,0-12.827827,2.717598-17.227943,7.133492c-4.399902,4.416718-7.134109,10.498932-7.134109,17.228149
			c0,5.435196,1.77948,10.450539,4.772408,14.494141c4.448494,5.985443,11.566002,9.868317,19.589645,9.868317
			c6.72963,0,12.828239-2.718414,17.228348-7.134315c4.416107-4.415894,7.149902-10.498924,7.149902-17.228142h0.016197
			c0,0-0.016197-7.958458,0-8.120827c0.274712-3.898453,3.383263-6.98835,7.489388-6.98835c4.106331,0,7.507683,0,7.507683,0
			l0.000984,52.916138c-0.001228,0.893021-0.725121,1.615463-1.617523,1.615463h-11.824516
			c-0.894661,0-1.61937-0.725723-1.617729-1.620392l0.013123-6.791534c-9.221718,7.158096-19.549873,8.411926-24.345856,8.411926
			c-22.098751,0-39.42202-18.441795-39.42202-39.422424c0-24.335403,21.013432-39.630722,39.42202-39.422432l8.936348-0.033623
			c7.990021-0.291935,14.002327-7.504154,14.002327-15.026348c0-6.53487-5.144501-11.598595-5.807495-12.262005
			c-4.400116-4.400314-10.498726-7.133497-17.228355-7.133497c-16.34066,0-21.614723,12.904095-23.180378,16.16046
			c-1.537365,3.196503-33.301682,67.319252-35.797871,72.045937c-2.24157,4.24369-4.928213,8.172485-4.818945,15.460968
			c0.199884,13.321487,11.265661,23.93277,24.589407,23.93277h78.646622c6.72921,0,12.827827-2.733185,17.22773-7.133499
			c2.054611-2.054199,7.134109-8.11673,7.134109-17.228149c0-4.62664-1.576309-9.55014-3.4216-12.70974L122.657898,69.94902z"/>
		<linearGradient id="SVGID_2_" gradientUnits="userSpaceOnUse" x1="57.627777" y1="80.055557" x2="127.385406" y2="80.055557">
			<stop  offset="0.142132" style="stop-color:#1FD7E5;stop-opacity:0"/>
			<stop  offset="0.994924" style="stop-color:#1FD7E5"/>
		</linearGradient>
		<path class="st3" d="M122.657898,69.94902c-0.711586-1.310417-1.842621-2.110779-3.372398-2.110779l-37.29567,0.07299
			c-6.729218,0-12.827827,2.717598-17.227943,7.133492c-4.399902,4.416718-7.134109,10.498932-7.134109,17.228149l9.206345-0.050026
			c0-8.217583,6.580177-14.900063,14.759224-15.059151l0,0l0,0l39.8675,0.004921c2.059319,0,4.305397-0.242729,5.924561,2.185402
			L122.657898,69.94902z"/>
		<linearGradient id="SVGID_3_" gradientUnits="userSpaceOnUse" x1="105.370399" y1="92.222847" x2="105.370399" y2="77.167801">
			<stop  offset="0.005076" style="stop-color:#1FD7E5;stop-opacity:0"/>
			<stop  offset="1" style="stop-color:#2585E5"/>
		</linearGradient>
		<path class="st4" d="M101.688332,77.168617c0,0-4.736732,0.149246-4.736732,5.026825c0,4.206787,0,8.832611,0,10.027405h9.432678
			c-0.001236-0.520721-0.015587-7.914169,0-8.070801c0.272865-3.871391,3.341232-6.941605,7.404922-6.984245L101.688332,77.168617z"
			/>
		<path class="st5" d="M81.593315,77.163704c-8.179092,0.158859-14.759254,6.841797-14.759254,15.059059
			c0,8.316673,6.74202,15.058693,15.058846,15.058693c8.215302,0,14.889435-6.579842,15.051003-14.756676h0.00769
			c0,0,0-5.452324,0-10.329735c0-4.877556,4.736809-5.026001,4.736809-5.026001L81.593315,77.163704z"/>
		<linearGradient id="SVGID_4_" gradientUnits="userSpaceOnUse" x1="36.847748" y1="112.970787" x2="111.705544" y2="38.112988">
			<stop  offset="0" style="stop-color:#2585E5"/>
			<stop  offset="1" style="stop-color:#1FD7E5;stop-opacity:0"/>
		</linearGradient>
		<path class="st6" d="M78.122948,131.500137c-20.218819-2.000076-35.555138-19.48735-35.555138-39.227264
			c0-24.335403,21.013432-39.630722,39.42202-39.422432l8.936348-0.033623
			c7.990021-0.291935,14.002327-7.504154,14.002327-15.026348c0-6.53487-5.144501-11.598595-5.807495-12.262005
			c-4.400116-4.400314-10.498726-7.133497-17.228355-7.133497c-16.34066,0-21.614723,12.904095-23.180378,16.16046
			c-1.272083,2.644615-23.240654,47.006126-32.197502,64.912445C36.919807,117.644798,56.001236,130.209396,78.122948,131.500137z"
			/>
		<linearGradient id="SVGID_5_" gradientUnits="userSpaceOnUse" x1="127.624138" y1="92.222847" x2="127.624138" y2="77.16188">
			<stop  offset="0.005076" style="stop-color:#1FD7E5;stop-opacity:0"/>
			<stop  offset="1" style="stop-color:#2585E5"/>
		</linearGradient>
		<path class="st7" d="M127.385406,79.354019c-1.619164-2.428131-3.865242-2.185402-5.924561-2.185402h-0.079544l0.000206,15.05423
			h12.485466L127.385406,79.354019z"/>
	</g>
</g>
</svg>
